<svg version="1.1" id="Layer_1" xmlns="http://www.w3.org/2000/svg" xmlns:xlink="http://www.w3.org/1999/xlink" x="0px" y="0px"
	 viewBox="0 0 1132.7 1131.4" style="enable-background:new 0 0 1132.7 1131.4;" xml:space="preserve">
<style type="text/css">
	.st0{fill:#31ADAD;}
	.st1{font-family:'ArialMT';}
	.st2{font-size:12px;}
	.st3{fill:#4AC1D6;}
	.st4{fill:#4B74BC;}
	.st5{fill-rule:evenodd;clip-rule:evenodd;fill:url(#path2875_1_);}
</style>
<title>tetaQuadrada</title>
<g id="svg2">
	<text transform="matrix(1 0 0 1 298.83 421.86)" class="st0 st1 st2">²</text>
	<g id="g6111">
		<ellipse id="path835" class="st3" cx="567.1" cy="570.6" rx="553.7" ry="551"/>
		<path id="path820" class="st4" d="M531.4,1102.6c-9.1-0.9-17.2-2.3-18-3.1s-0.2-11.1,1.5-23.4c1.6-12,2.6-22.8,2.3-24
			c-0.7-2.1-79.3-19-81.8-17.6c-2.3,1.3-8.6,24.5-8,29.6c0.6,5.3,3.1,6.5,24.9,11.3c10,2.2,10.5,2.6,11,8c0.4,4-0.3,6-2.3,6.8
			c-2.9,1.1-53.6-10.4-58-13.1c-1.9-1.2-1.1-5.3,3.9-21.5c8.5-27.1,8.4-27.7-2.9-31.7c-5-1.8-20.8-8.2-35.1-14.3s-26.2-11-26.5-11
			c-0.8,0-6.5,11.3-11.8,23.2l-4.3,9.7l9.7,4.4c5.3,2.4,13.5,5.8,18.1,7.4s8.5,3.6,8.5,4.4c-0.6,2.5-1.4,5-2.5,7.4l-2.5,6l-18.8-8.8
			c-22.4-10.4-37.1-18.7-37.1-20.8c0-0.8,5.1-10,11.3-20.3s11.3-19.7,11.3-20.7s-6.1-5.7-13.5-10.3s-21.3-13.8-30.7-20.3
			s-18.1-11.8-19.2-11.8c-2.6,0-20.1,23-20.1,26.5c0,1.5,6.3,7.5,13.9,13.5c7.7,5.9,13.9,11.4,13.9,12.2s-1.5,3.3-3.3,5.5l-3.3,4
			l-10.2-6.8c-5.6-3.7-17-12.2-25.4-18.8c-12.5-9.9-14.9-12.6-13.5-15c0.9-1.6,8.4-10.3,16.6-19.4l14.9-16.5l-26.6-26.6
			c-14.6-14.6-27.3-26.6-28.3-26.6c-1.8,0-23.4,18.2-25.6,21.6c-0.7,1.1,4.3,7.5,12.1,15.4l13.4,13.5l-5.3,5.4l-5.3,5.3l-12.5-13.2
			c-11.5-12.1-28.9-33.9-27.7-34.9c0.3-0.2,8.5-6.4,18.3-13.8s18.3-14.1,18.9-15.1s-6.7-13.7-16.2-28.2s-18.7-29-20.5-32.1
			s-3.9-5.7-4.7-5.7c-2.1,0-18.8,8.6-24.4,12.5c-2.6,1.9-4.8,4.7-4.8,6.4s4,9.5,9,17.5c8.6,14,8.8,14.7,5.7,17
			c-8.8,6.6-8.3,6.9-21.2-15.7c-19.2-33.7-18.4-31.8-13.8-34.8c2.2-1.4,11.9-6.6,21.7-11.5s17.8-10,17.8-11.2s-3.1-9.4-6.9-18.1
			s-9.3-22.7-12.3-31.1c-6.9-19.5-7.7-20.4-16.3-19c-10,1.6-23.8,7.9-23.8,10.9c0,1.4,2.1,9.3,4.6,17.5l4.6,14.9l-4,3.2
			c-5.1,4.1-8.2,4.1-10.5-0.2c-2-3.7-14.6-43.4-16.4-51.7l-1.1-5l24.5-5.7l24.5-5.7l-1-5.5c-0.6-3-3.6-20-6.7-37.7L77.8,613
			L64,613.6c-22.4,0.9-22.2,0.6-19.5,23.7c1,8.2,1.3,16.1,0.7,17.5c-1.5,3.8-11.1,3.4-12.3-0.4c-1.6-5.4-4.3-25.3-5.6-41.1
			c-1-12.3-0.7-15.7,1.2-16.9c1.3-0.8,12.3-1.5,24.3-1.6h22l1.1-27.4c0.6-15.1,1.6-33,2.2-40c1.2-14.3,3.3-12.7-20.2-15.9
			c-9.7-1.3-13.3-1.3-14.3,0.2c-0.7,1.1-1.7,7.1-2.3,13.4c-2.5,27.4-2,26.2-9.7,26.2c-5.5,0-6.9-0.6-6.9-3.2
			c0-6.3,5.5-58.6,6.3-59.4c0.4-0.4,10.9,0.7,23.2,2.4s23.6,2.7,25,2.2c1.6-0.6,4-7.1,6.3-17.2c2-8.9,5.8-25.1,8.4-35.9
			c4-17,4.3-19.9,2.1-21.3c-3.8-2.4-21-7.3-26.7-7.5c-5.5-0.3-4.9-1.4-11.6,21.2c-3.7,12.5-3.8,12.7-9.2,12.2s-5.5-0.7-5.2-9.2
			s6.5-30.4,12.9-45.3l3.3-7.7l22,7.8c12.1,4.3,22.9,7.8,24,7.8s4-4.8,6.3-10.8s9.1-20.8,15.2-33.1s11-23.1,11-24
			c0-1.9-26.6-15.6-30.3-15.6c-1.4,0-6.2,6.9-10.8,15.7c-8.2,15.6-10.2,17.3-17.1,14.6c-1.5-0.6-2.6-1.9-2.8-3.5
			c0-5.7,24.8-50.7,28.8-52.3c1.3-0.5,11.5,4.7,22.6,11.7s20.8,11.9,21.6,11s5.4-7.4,10.3-14.6s14.8-20.5,22-29.6s13-16.9,13-17.4
			c-0.1-1.1-23.9-21.6-25.9-22.3c-0.9-0.3-4.2,2.4-7.3,6c-21.4,24.1-21.3,24-26.6,18.1c-3-3.3-3-3.6,0-8.3
			c4.1-6.4,25.2-31.3,32.1-37.8l5.4-5.1l17.8,17.8l17.8,17.8l19.2-17.8c10.5-9.8,23.7-21.8,29.3-26.5l10.1-8.7l-10-12.6
			c-6-7.6-11.3-12.6-13.3-12.6c-1.8,0-9.4,5.1-16.9,11.2l-13.6,11.2l-3.8-5.1c-2.1-2.8-3.8-5.8-3.8-6.6c0-1.5,28.2-24.1,41.4-33.3
			l5.8-4l4.1,3.9c2.3,2.1,9,10.8,15,19.3s11.6,15.5,12.5,15.5c1.3,0,61.6-35.5,63.7-37.6c1.1-1-8.2-21.9-11.9-26.8l-3.3-4.3
			l-16.2,7.3c-8.9,4-17.2,7.3-18.4,7.3c-2.6,0-6.3-6.4-4.9-8.6c1.6-2.7,50.5-29.7,53.7-29.7c0.4,0,4.8,9.9,10,21.9
			s10.2,22.3,11.3,22.7s9.1-2,17.7-5.3s21.6-7.7,28.6-9.8c23-6.8,25.9-8.4,25.9-14c0-4.3-7.1-26.7-9.1-28.7
			c-0.4-0.4-7.3,1.2-15.3,3.6c-16.9,5.1-21.8,5.4-23.3,1.6c-2-5.2-1-7.6,4.2-10.3c5-2.6,52.2-15.4,53.1-14.4
			c0.3,0.3,2.9,11,5.8,23.8s5.8,23.7,6.2,24.2c0.9,0.9,68.9-7.9,73.1-9.5c1.7-0.9,3-2.4,3.5-4.2c1-3-1.9-29.3-3.3-30.8
			c-0.3-0.4-9,0-19.2,0.8c-18.2,1.5-18.5,1.5-19.4-2.3c-0.5-2.3-0.7-4.7-0.4-7c0.7-3.5,6.5-4.4,43.7-6.4l20.4-1.1v51.7l23.9,1.1
			c13.2,0.6,30.3,1.6,38,2.2l14.1,1.1l2-12.3c1-5.8,1.7-11.6,2-17.5c0-5.8-0.8-6.1-20-8.2c-16-1.8-18.3-3.1-18.3-10.2
			c0-5.2,0.6-6.1,3.9-6.1c5.9,0,57.1,8.2,58.2,9.3c0.5,0.5-1.1,11.2-3.7,23.7s-4.2,23.4-3.7,24.3s6.6,2.9,13.6,4.5
			s22.4,5.7,34.4,8.9s23,5.9,24.7,5.9c2.1,0,4.5-4.2,8.4-14.1c3-7.8,5.1-15,4.7-16.2s-8.3-4.6-17.5-7.8s-17-6.3-17.4-6.9
			s-0.3-3.4,0.3-6.1c0.9-4.8,1.3-4.9,8.4-4c7.8,1.1,50.7,16.2,52,18.4c0.4,0.7-3.1,10.9-7.8,22.7s-8.6,22.1-8.6,22.9
			s10.8,6.9,24,13.5s28.1,14.4,33.1,17.4s9.7,5.4,10.4,5.4c2.1,0,18-29.5,16.9-31.3c-0.6-1-7.9-5.7-16.2-10.6s-15.3-9-15.5-9.2
			s1.2-2.9,3.1-6l3.5-5.7l15.2,8.2c17.2,9.3,38.7,22.8,38.7,24.4c0,0.6-5.9,9.7-13,20.3s-13,19.9-13,20.6s13.4,12.1,29.8,25.2
			l29.7,23.7l11.5-12.6c6.4-6.9,11.8-13.1,12-13.7s-6.2-6.9-14.4-13.8s-14.7-13.2-14.3-13.8l3-5.9c1.3-2.6,3-4.8,3.7-4.8
			c1.4,0,42.9,36.1,46.5,40.4c1.9,2.3-0.4,5.2-16.3,20l-18.5,17.3l8.1,9.1c4.4,5,15.6,18.4,24.8,29.9s17.5,20.8,18.5,20.8
			c2.6,0,27.4-18.9,27.4-20.9c0-0.9-5-8.3-11.1-16.4l-11.1-14.7l5.1-4.9l5.1-4.9l4.3,5.2c2.3,2.9,10.9,14.5,19.1,25.8l14.8,20.7
			l-20.5,12.8c-11.3,7-21.2,13-22,13.3s1.8,6,5.9,12.6s12.6,22,18.9,34c8.3,15.9,12.2,21.7,14.1,21c1.4-0.5,9.1-3.9,17-7.5l14.4-6.6
			l-7.8-15.6c-4.3-8.6-7.9-16.9-7.9-18.3c0-2.6,5-6.2,8.6-6.2c2.2,0,26.2,48,26.2,52.3s-2.6,6-23.3,14.5
			c-10.3,4.3-19.2,8.1-19.7,8.6c-0.9,0.9,17.8,68.7,19.4,70.3c1.2,1.2,21.5-2.9,28.4-5.8s6.9-4.2,1.6-24.8l-4.1-15.6l6.2-1.9
			c3.4-1,6.7-1.3,7.3-0.6c1.5,1.7,13.7,52.5,13.7,57.1c0,3.3-1.8,3.9-19.6,6.6c-31.2,4.7-28.1,2.1-26.8,22.1
			c0.6,9.4,1.6,25.2,2.2,35c1.5,25.2,1.9,25.7,22.7,25.7h16.7l-1.3-20.9l-1.3-20.9h14l1.1,10.9c0.6,6,1.2,19.3,1.4,29.6
			c0.3,15-0.2,19.1-2.2,20.6c-1.7,1.2-11.1,1.5-26.3,0.8l-23.7-1l-1.1,19.6c-0.6,10.8-2.3,27.8-3.8,37.7s-2.1,18.8-1.3,19.6
			c2,2,29.6,7.1,32.4,6c1.3-0.5,3.1-6.8,4.4-15.4c3.1-21.2,2.8-20.6,10.6-20.6c6,0,6.8,0.5,6.8,4.2c0,4.6-4,26.7-8.1,45
			c-3.1,14-2.3,13.8-29.2,7.3c-19-4.6-25.3-4.4-25.3,0.6c0,1.6-4.3,16.3-9.6,32.8s-9.6,31-9.6,32.4c0,2.5,29.3,17.2,31.7,15.8
			c0.7-0.4,3.8-8.5,6.9-18.1c5.9-18.1,7.4-19.6,16.1-16.3c4,1.5,3.4,5.5-3.2,22.9c-7.6,20-14.4,33.3-17.6,34.6
			c-1.4,0.5-10.2-2.5-19.5-6.8s-18.3-8.2-20-8.8c-4-1.3-7,1.9-14.7,15.9c-3.5,6.4-11,19.5-16.6,29s-10.1,18.5-10.1,20
			c0,3.2,22.5,17.5,27.2,17.4c2.1,0,6.5-5.2,12.5-14.8c5.1-8.1,10.2-14.7,11.4-14.7c2.9,0,9.8,5.1,9.8,7.3c0,2.4-27.1,43.7-31,47.2
			c-2.8,2.5-4.6,1.6-22.7-11.1c-10.8-7.6-20.2-13.8-20.8-13.7s-4.5,4.3-8.7,9.5s-15.3,17.6-24.8,27.7s-17.3,18.9-17.3,19.6
			s5.6,7,12.5,13.9l12.5,12.6l13.4-13c7.4-7.2,14.5-13,15.9-13s4,1.6,5.8,3.6c3.2,3.5,3,3.8-19.3,26.1l-22.5,22.5l-16.2-18.3
			c-8.9-10-16.9-18.3-17.8-18.3s-8.5,5.3-16.9,11.8c-12,9.3-27.4,20.7-42,31.2c-1,0.7,10.5,19.4,15,24.3c2.1,2.3,5.3,4.2,7,4.2
			s8.6-3.9,15.3-8.7c13.4-9.7,16.3-10.3,21-5.1c3.2,3.5,3.2,3.7-1,7c-2.4,1.9-13.6,9.6-25,17.3c-24.2,16.3-22,16.6-35.9-6.1
			c-10.1-16.5-12.8-20.1-14.9-20c-0.8,0-16,7.3-33.7,16.2c-24.2,12.1-32.3,17-32.7,19.6s8.6,27.4,11,30c0.3,0.3,8.4-3,18.1-7.4
			s18-7.9,18.4-7.9s2.1,2.4,3.6,5.3c2.1,4.1,2.3,5.9,0.8,7.7c-2.3,2.8-49.4,21.7-54,21.7c-3.2,0-5.7-5.5-13.8-30.4
			c-2.2-6.7-4.5-12.8-5.2-13.6s-12.6,1.7-26.3,5.4s-29.3,7.8-34.6,8.9c-15.1,3.2-14.9,2.8-11.6,19.5c1.6,7.9,3.7,15.2,4.6,16.1
			c1.1,1.1,8,0.8,19.3-0.7c18.7-2.5,20.7-1.9,20.8,5.6c0,4.5-4,6-30.5,10.9c-13.3,2.5-25.8,4.8-27.8,5.3c-3.3,0.7-3.8-0.7-6.4-19.2
			c-1.6-11-4-22.1-5.2-24.7c-2.7-5.5-4.2-5.6-35.1-2.4c-10.5,1.1-26.6,2-35.9,2c-19.5,0-17.9-1.7-20,21.1
			c-1.4,15.9-2.1,15.4,22.2,16.8l17,1v13.4l-13.5-0.2c-7.4-0.1-20.9-1-30-1.9L531.4,1102.6z M599.4,1028
			c146.3-11.6,275-87.1,354.2-207.8c36.4-55.8,60.7-118.7,71.3-184.5c3.8-24.3,5.2-85,2.7-114C1010.2,325,862.4,157.2,668.1,113.6
			c-38-8.5-54.6-10.2-99.3-10.2c-34.4,0-46.2,0.7-66.8,3.9C366.8,128.1,254.1,199.1,180.3,310c-14.7,22.1-39.1,70.4-48.3,95.6
			c-22.3,60.9-30.9,121.4-27,189c3.7,64.6,17.5,116.6,47,176.7c54.4,110.8,153.5,197,269,234C483.9,1025.5,540.1,1032.7,599.4,1028
			L599.4,1028z"/>
		<path id="path822" class="st4" d="M490.5,1125.5c-129.7-20-239.2-75.4-327.3-165.6c-66.6-68.2-113.9-149.9-140-242
			C9.8,670.7,4.8,638.6,3.1,587.8C0.2,502.2,13,428.7,44.1,353c34.1-83.3,87.5-157.3,155.8-215.8c77.5-66.4,174.5-111.7,276.7-129
			c45.4-7.7,134.7-7.7,179.7,0C753.6,24.9,845,66,922.1,127.7c22,17.6,59,53.9,76.9,75.5c72.1,86.7,120,200,129.4,306.3
			c2.8,31.3,1.2,112.6-2.7,137.5c-33,212.3-176.6,384-379.3,453.6c-41.3,14.2-84.7,23.7-121.9,26.7
			C587.7,1130.3,515,1129.3,490.5,1125.5L490.5,1125.5z M587.1,1098.8v-18l-10.7-1.1c-5.9-0.6-14.9-1.1-20-1.1c-9,0-9.3-0.2-9.3-4.8
			c0-2.6,0.6-5.7,1.3-6.8s13-2.8,30.9-4c16.3-1.1,31.3-2.5,33.3-3c3.3-0.8,4,0.1,5.5,8.4c1,5.1,3,15.6,4.5,23.4s2.7,14.6,2.7,15.2
			c0,4,50.4-3.8,72.7-11.2l11-3.6l-0.8-9.8c-0.9-10.5-5.2-22.9-8.1-22.9c-0.9,0-8.9,1.2-17.6,2.8c-17.4,3-19.4,2.3-18.5-6
			c0.4-3.8,2.6-4.7,26.2-10.7l25.7-6.6l2.3,4.6c2.1,4.6,3.9,9.4,5.4,14.2c1.7,5.4,3.9,10.6,6.3,15.6c1.8,3.3,3.2,7.1,3.2,8.3
			c0,1.2,0.9,2.2,2.1,2.2c7.6,0,60.9-19.9,67.5-25.2c1.7-1.3,3.7-2.4,5.7-3.2c1.8-0.7,3.2-2,4.1-3.7c0.9-2.4-10.4-27.9-13.2-29.6
			c-1.5-0.9-21.1,6-29.5,10.4c-6.2,3.2-8,2.4-9.6-4.3c-1-4.1,0.3-5,24-16.9l25.1-12.5l11.5,18c6.3,9.9,12.8,19,14.3,20.2
			c2.3,1.9,4.4,1.4,13.5-3.6c11.5-6.2,43.6-28.1,53-36.1l5.7-4.8l-4.8-7c-3.5-4.8-7.2-9.4-11.3-13.8c-6-6.3-6.7-6.6-9.5-4.1
			c-1.7,1.5-8.5,6.4-15.1,11l-12,8.3l-4-5.1c-2.2-2.8-3.9-5.6-3.6-6.2c0.5-1.4,40.5-31.1,41.9-31.1c0.5,0,8.2,8.2,17,18.3
			s17.1,18.3,18.3,18.3c2.7,0,59.9-59.1,59.9-61.8c0-2.4-13.1-14.3-20.7-18.7l-5.3-3.1l-13.4,12.3L931.1,922l-4.8-4.7l-4.8-4.6
			l8.6-9.7c4.7-5.4,13.1-14.7,18.7-20.7l10.1-11l10.4,7.1c5.8,3.9,15.1,9.9,20.7,13.4l10.2,6.3l6-6.8c15.5-17.5,43.1-63.3,39-64.7
			c-3-1.5-5.8-3.2-8.5-5.1c-5.7-3.9-21.3-10-22.3-8.7c-0.2,0.2-4.5,6.7-9.5,14.4s-9.5,14.2-9.8,14.6s-2.9-0.8-5.8-2.7l-5.3-3.3
			l13.9-24.6l13.9-24.6l14.3,6c7.9,3.3,18.1,7.7,22.6,9.7s8.6,3.4,8.9,3c1.8-2,15.6-30.9,20-42c4.9-12.4,11.6-35.9,10.4-36.8
			c-3.1-2.3-19.5-7.8-25.4-8.5c-7.3-0.9-7.4-0.8-10.6,6.4c-1.8,4-4.6,11.4-6.2,16.4c-3.2,9.6-6,11.1-12,6.5c-3-2.3-2.9-3.4,4.1-26.5
			c4-13.2,7.9-24.8,8.7-25.6s9.1,0,19.7,2.3c10,2.1,20.8,3.6,24,3.3c5-0.5,6.1-1.5,8.1-7.5c5.9-17.9,12.6-57.3,11.3-66.6
			c-0.9-6.7-1.6-7.5-7.3-9.1c-8.9-2.5-23.8-2.2-26,0.5c-1,1.2-3.2,9.1-4.8,17.4c-2.9,14.7-3.1,15.2-7.8,15.2c-2.7,0-5.4-0.8-6-1.8
			c-1-1.6,1.5-34.1,3.8-50.2l0.9-5.9l24.2,1.1l24.2,1.1l1.3-4.8c1.8-6.3,1.7-55.5-0.2-70.5l-1.4-11.8h-36.8l1.2,20.9l1.2,20.9h-13.7
			l-1-10c-0.6-5.5-1.5-18.3-2.1-28.3l-1.1-18.3l14.7-2.1c8.1-1.2,16-2.8,23.9-4.9l9.2-2.7l-1.1-10.3c-2.4-22.7-14.9-67-19.8-70.1
			c-1.8-1.1-21.2,2.6-28.6,5.5l-4.6,1.8l4.9,18.8l4.9,18.8l-3.7,1.4c-9.5,3.6-11.9-1-22.7-44.2c-1.1-4.3-0.4-4.9,11.5-9.9
			c6.9-2.9,17-7.3,22.4-9.7l9.9-4.4l-3.3-11c-4.4-14.4-28.8-63.9-32.1-65.2c-1.4-0.5-5.1,0-8.2,1.2c-6.7,2.6-22.2,12.2-22.1,13.7
			c0,0.6,3.5,8.1,7.6,16.7l7.6,15.7l-5.4,2.9c-3,1.6-6,2.6-6.6,2.2c-1.5-0.9-25.8-45.4-25.8-47.2c0-0.8,9.4-7.1,20.9-14.2
			s20.9-13.5,20.9-14.4c0-2.9-47.9-67.6-51.8-70c-1.8-1.1-26.5,21.2-26.4,23.9c0,1.1,4.7,8.3,10.4,16l10.4,13.9l-4.1,4.1
			c-2.3,2.3-5,3.6-6,2.9c-2.7-1.7-35-40.6-35-42.2c0-0.7,7.8-9.2,17.5-18.9l17.5-17.5l-9.5-9.7c-10.1-10.3-39.9-36.2-49.4-42.8
			c-5.5-3.9-5.8-3.9-10.1-0.9c-2.4,1.7-7.6,7.8-11.5,13.5l-7,10.4l5,4.2c10.1,8.5,23.2,21.4,23.2,22.7c0,0.7-1.8,3-4,5.1l-4,3.8
			l-21.2-16.9c-11.6-9.3-21.2-17.5-21.2-18.3s5.9-10.3,13.3-21.4c15.4-23,16.2-19.1-7.3-34.6c-12.6-8.4-51.6-30.6-53.7-30.6
			c-1.7,0-13,21.8-14.1,27.3s-0.9,5.7,13.7,14.6c8.2,5,14.9,9.3,14.9,9.6c0,2.7-4.6,9.4-6.4,9.4c-2.4,0-43.3-19.9-46.9-22.8
			c-1.4-1.1,0.2-7.2,5.5-21.1c11.1-29.3,11.1-26.2-0.4-31.4c-17-7.6-39-15.2-54.1-18.8c-7.9-1.8-14.8-3.4-15.2-3.4
			c-1.6,0-6.1,10.5-7.8,18.5c-1,4.6-2.3,9.8-2.7,11.3c-0.6,2,0.4,3.3,3.1,4.1c2.2,0.6,10.4,3.5,18.2,6.4l14.2,5.2l-1.8,5
			c-1,2.8-3,5-4.4,5c-4,0-49.9-12.3-51.5-13.8c-0.8-0.7-0.2-7.9,1.2-15.9s3.1-18.6,3.7-23.5l1.1-8.9l-7.6-1.8
			c-26.2-6.5-74.1-11.8-77.4-8.5c-0.5,0.5-1.2,8.4-1.5,17.6l-0.6,16.7h4.7c6,0,31.6,4.5,32.8,5.8c0.5,0.5,0.4,3.4-0.3,6.4l-1.2,5.5
			l-17.7-1.1c-9.7-0.6-21.8-1.5-26.8-2l-9.1-0.9V20.1L551,21.3c-19.7,1-40.1,3-60,5.6c-6.3,0.9-6.5,1.1-6.5,8
			c0.2,5.9,1,11.7,2.1,17.5l2.1,10.3l18.5-1l18.6-1l1.1,5.4c0.6,3,0.5,6-0.2,6.7c-1.8,1.7-53.2,8.3-54.7,7c-0.6-0.6-3.7-11.4-6.7-24
			l-5.6-23l-8.9,1c-11,1.2-42.9,9.5-60,15.7l-12.8,4.6l1.1,7.1c1.4,8.8,9.5,25.4,12.5,25.4c1.2,0,9.3-1.9,17.9-4.2l15.6-4.2l1.1,5.2
			c0.6,2.9,0.5,5.9-0.3,6.7s-12.7,5.4-26.4,10.2l-24.9,8.7l-4.3-9.9c-2.4-5.4-7.1-15.5-10.4-22.3l-6.1-12.4l-6.4,1.8
			c-11.1,3-65.8,32.4-68.5,36.7c-1.2,2,3,11.2,10.5,23c2.5,3.8,4.5,7.2,4.6,7.4s7.9-3.5,17.4-8.3s17.7-8,18.3-7.3
			c1.2,1.8,2.2,3.8,3,5.8c1.9,4.4,1.5,4.7-20.1,17.4c-12.1,7.1-23,12.9-24.1,12.9s-8.4-8.4-16.1-18.7s-15-18.7-16-18.7
			c-4.9,0-54.1,38.3-61.2,47.5l-4.5,5.9l9.7,12.9c5.3,7.1,10.3,13.1,11.1,13.4s7.2-4.3,14.1-10.1c16.9-14.3,17.1-14.4,21.6-8.8
			l3.8,4.6L230,200.5l-20.9,18.9l-16.8-16.8c-9.3-9.2-18.2-16.8-19.8-16.8c-3.7,0-35.2,35-46.8,52.1l-8.8,12.9l7.2,6.7
			c4.3,3.9,9,7.3,14,10.1l6.8,3.5l5.7-6.5c3.1-3.6,8.8-9.8,12.7-13.9l7-7.4l4.7,4.1l4.7,4.1l-14.3,19c-7.8,10.4-15.4,20.7-16.9,22.9
			l-2.6,4l-20.4-12.3c-11.2-6.8-21.1-12.3-22-12.3c-3.9,0-31.8,48-37.8,65.1c-2.3,6.6-2.3,7.1,2.2,11.7c3.7,3.9,24.8,13.2,25.9,11.5
			c0.2-0.2,4-7.5,8.7-16.1s8.6-15.9,8.8-16.2c0.8-1,11.2,5,11.2,6.4c0,0.8-5.1,12.1-11.3,25.1l-11.3,23.7L77,376.1
			c-13-4.5-23.5-7.3-24.3-6.4c-5.1,5.1-24.2,67.8-24.2,79.3c0,2.9,31,11.1,33,8.8c0.7-0.8,3.4-8.5,6.1-17.1s5.1-15.9,5.3-16.3
			c1.4-1.7,11.2,2.1,11.2,4.4c0,3.9-10.8,50-12,51.4c-0.6,0.6-10.4,0-21.8-1.4s-22.3-2.3-24.2-2c-2.7,0.4-4,2.8-5.8,10.6
			c-3.1,13.6-7.2,57.8-6.3,66.7c0.8,7.1,0.8,7.2,9.1,8.2c6,0.6,12.1,0.6,18.1,0l9.8-1l0.2-9.8c0.1-5.4,0.7-13.7,1.3-18.5
			c1.1-8.6,1.3-8.7,7.3-8.7h6.1l-0.5,20c-0.3,11-0.9,24-1.4,28.8l-0.9,8.8l-23.4,1.8c-12.9,1-24,2.3-24.6,3
			c-1.6,1.6,2.5,49.2,5.6,65.5c2.8,14.7,5.2,17.4,15,17.4c6.7,0,20.6-4.6,22.5-7.4c0.6-0.8,0.4-5.2-0.3-9.7s-1.7-12.3-2.1-17.3
			l-0.8-9.1h6.7c3.7,0,6.7,0.6,6.7,1.3s2,11.9,4.3,24.8s4.3,24.4,4.3,25.5s-10,4.4-23.9,7.6c-13.2,3.1-24.2,5.8-24.5,6
			c-2.8,2.4,18.8,69,26.6,82.2c0.5,0.8,14.2-3.3,23.1-6.9c5.5-2.2,9.1-4.8,9.2-6.4s-2.1-9.6-4.7-18.1c-4-13-4.3-15.6-2.2-17
			c6.7-4.4,9.2-1.3,19.2,23.6c5.4,13.4,9.4,25,9,25.7s-4.8,3.4-9.7,5.8c-21.3,10.6-30.8,17-30.8,20.8c0,7.9,25.8,54,35.4,63.3
			l6.1,5.9l7.5-3.7c4.8-2.4,9.3-5.4,13.4-8.8l5.9-5.1l-8.9-16.7l-8.8-16.7l5.6-3.4l5.5-3.4l5.4,8.2c16.6,25,25.7,40.8,24.1,41.8
			c-13.8,9.3-35.4,27.8-35.4,30.4c0,5.3,50.1,63.9,54.6,63.9c1.1,0,7.9-5.9,15-13l13-13.1L193,916.8L179.3,903l4.2-3.5
			c2.3-1.9,4.6-3.5,5.1-3.6s9.4,8.5,19.9,19l19,19l-8.6,9.9c-4.7,5.5-11.9,14.2-16.1,19.4l-7.5,9.4l9.1,8.2
			c12.8,11.5,26.1,21.8,44.1,33.9l15.6,10.5l5.9-6.8c6.5-7.5,12.5-18.2,12.5-22.3c0-1.4-1.4-3.3-3-4.3s-7.9-5.5-13.8-10.2L255,973
			l4-5l4-5l22.8,14.7c25.7,16.6,24.7,14.3,14.2,32.6c-3.6,6.2-6.8,12.7-9.7,19.3c-3,7.6-3,7.6,1.2,10.9c3.7,2.9,69.7,36.3,71.7,36.3
			c0.9,0,6.6-14,10.6-25.9c2.4-7.3,2.4-7.8-1.2-10.8c-2.1-1.7-9.3-5.5-15.9-8.3s-12.4-6-12.8-7.1s0.3-4.2,1.4-6.9l2-4.9l26.7,11.3
			l26.7,11.3l-2.7,8.9c-3.9,12.8-10.7,38.4-10.4,38.6c8.8,6.2,80.9,23.3,83.1,19.7c1.3-2.1,4.4-16.9,5.8-27.8l0.8-6.2l-19-4.1
			c-14.6-3.2-18.8-4.7-18.1-6.6c0.5-1.4,0.9-2.9,1-4.5c0.1-6.7,2.4-6.7,32.3-0.2c16.2,3.5,29.8,7,30.3,7.8s-0.2,11.8-1.5,24.4
			c-1.9,18-2,23.2-0.3,24.2c1.2,0.7,11.3,2.2,22.4,3.3c27.5,2.7,32,3,48.6,3.4l14.4,0.3L587.1,1098.8z"/>
		<path class="st4" d="M251.9,607.8c0-165.3,67.3-291.7,189.6-291.7c124.8,0,182.3,117.5,182.3,291.7
			c0,182.3-59.1,301.4-184.7,301.4C323.2,909.3,251.9,808,251.9,607.8z M553.3,577.1C552.5,462,516,368.8,437.5,368.8
			c-72.1,0-115,98-115,208.2H553.3z M322.4,630.5c0,144.2,48.6,226,118.3,226c76.2,0,112.6-94,112.6-226H322.4z"/>
		<path class="st4" d="M663.5,511.4l51-47c67.3-61.6,102.1-99.7,102.1-141c0-30.8-19.5-55.9-61.6-55.9c-28.4,0-52.7,13.8-68.1,25.1
			L670,255.4c21.9-17.8,58.3-34,98.8-34c76.2,0,107.8,48.6,107.8,91.6c0,61.6-46.2,106.1-107.8,159.6l-25.1,22.7v1.6h138.5v44.6
			H663.5V511.4z"/>
		<g id="layer2">
			
				<radialGradient id="path2875_1_" cx="142.1073" cy="262.5991" r="269.92" gradientTransform="matrix(2.77 0 0 2.86 26.38 -377.5498)" gradientUnits="userSpaceOnUse">
				<stop  offset="0" style="stop-color:#FFFFFF;stop-opacity:0.31"/>
				<stop  offset="0.19" style="stop-color:#FFFFFF;stop-opacity:0.25"/>
				<stop  offset="0.6" style="stop-color:#6B6B6B;stop-opacity:0.13"/>
				<stop  offset="1" style="stop-color:#000000;stop-opacity:0.13"/>
			</radialGradient>
			<path id="path2875" class="st5" d="M565.7,1132.8c284.8,0,567.1-223.5,567.1-564.7c0-289.8-225.9-568-567.1-568
				C226.3,0,1,283.3,1,568C1,850.1,227.2,1132.8,565.7,1132.8z"/>
		</g>
	</g>
</g>
</svg>