<svg xmlns="http://www.w3.org/2000/svg" xmlns:xlink="http://www.w3.org/1999/xlink" viewBox="0 0 1132.74 1131.36"><defs><style>.cls-1{font-size:12px;font-family:MyriadPro-Regular, Myriad Pro;}.cls-2{fill:#bc2e2e;}.cls-2,.cls-3{stroke:#000;stroke-width:5px;}.cls-3{fill:#f1ba51;}.cls-4{fill-rule:evenodd;fill:url(#radial-gradient);}</style><radialGradient id="radial-gradient" cx="393.23" cy="834.31" r="269.92" gradientTransform="matrix(2.77, 0, 0, -2.86, -669.23, 2759.61)" gradientUnits="userSpaceOnUse"><stop offset="0" stop-color="#fff" stop-opacity="0.31"/><stop offset="0.19" stop-color="#fff" stop-opacity="0.25"/><stop offset="0.6" stop-color="#6b6b6b" stop-opacity="0.13"/><stop offset="1" stop-opacity="0.13"/></radialGradient></defs><title>tetaQuadrada</title><g id="svg2"><text class="cls-1" transform="translate(298.83 421.86)">²</text><g id="g6111"><ellipse id="path835" class="cls-2" cx="567.08" cy="570.59" rx="553.74" ry="551.04"/><path id="path820" class="cls-3" d="M531.41,1102.58c-9.09-.89-17.21-2.28-18-3.09s-.2-11.11,1.45-23.37c1.63-12,2.64-22.85,2.26-24-.7-2.08-79.31-19-81.8-17.59-2.29,1.29-8.56,24.51-8,29.56.61,5.34,3.11,6.47,24.92,11.31,10,2.21,10.47,2.58,11,8,.39,4-.29,6-2.33,6.78-2.88,1.1-53.56-10.38-58-13.14-1.89-1.18-1.14-5.31,3.92-21.51,8.46-27.11,8.41-27.69-2.88-31.66-5-1.77-20.8-8.19-35.07-14.27s-26.18-11.05-26.5-11.05c-.77,0-6.48,11.27-11.77,23.23l-4.29,9.7,9.69,4.43c5.33,2.44,13.49,5.79,18.15,7.44s8.46,3.63,8.46,4.39a38.22,38.22,0,0,1-2.51,7.39l-2.51,6-18.79-8.77c-22.37-10.45-37.1-18.69-37.1-20.76,0-.82,5.08-10,11.3-20.32s11.32-19.66,11.32-20.69-6.07-5.68-13.49-10.34-21.25-13.8-30.74-20.32-18.14-11.85-19.24-11.85c-2.61,0-20.07,23-20.07,26.47,0,1.47,6.27,7.53,13.93,13.45s13.92,11.42,13.92,12.21-1.48,3.26-3.28,5.49l-3.28,4.05L251.85,1003c-5.61-3.7-17-12.16-25.42-18.8-12.46-9.89-14.91-12.6-13.54-15,.92-1.6,8.37-10.33,16.55-19.39l14.87-16.49-26.55-26.59c-14.6-14.62-27.34-26.58-28.32-26.58-1.84,0-23.41,18.15-25.62,21.56-.74,1.13,4.3,7.52,12.14,15.42l13.4,13.49L184.05,936l-5.31,5.31L166.21,928.1c-11.52-12.13-28.85-33.94-27.72-34.89.26-.23,8.47-6.41,18.25-13.75s18.26-14.11,18.85-15.07-6.69-13.65-16.18-28.21-18.74-29-20.54-32.13-3.91-5.66-4.69-5.66c-2.08,0-18.79,8.59-24.37,12.52-2.63,1.86-4.78,4.73-4.78,6.38s4,9.55,9,17.55c8.58,13.95,8.82,14.66,5.65,17-8.79,6.57-8.33,6.91-21.17-15.66-19.17-33.68-18.42-31.8-13.78-34.84,2.17-1.42,11.94-6.6,21.71-11.5s17.77-10,17.77-11.21-3.09-9.42-6.86-18.12-9.29-22.69-12.26-31.1c-6.88-19.5-7.67-20.42-16.29-19C78.79,712,65,718.34,65,721.34c0,1.42,2.09,9.27,4.64,17.46l4.64,14.88-4,3.21C65.21,761,62.1,761,59.8,756.65c-2-3.72-14.62-43.43-16.43-51.68l-1.11-5,24.48-5.72,24.48-5.71-1-5.53c-.55-3.05-3.58-20-6.73-37.73L77.76,613,64,613.6c-22.39.9-22.18.64-19.49,23.7,1,8.2,1.29,16.07.74,17.51-1.45,3.76-11.08,3.42-12.25-.43-1.64-5.42-4.33-25.28-5.57-41.08-1-12.27-.71-15.72,1.22-16.94C30,595.51,41,594.81,53,594.79l22,0,1.13-27.41c.62-15.08,1.59-33.05,2.15-40,1.16-14.35,3.27-12.69-20.22-15.92-9.67-1.33-13.34-1.28-14.26.22-.69,1.11-1.71,7.14-2.28,13.39-2.47,27.36-2,26.16-9.71,26.16-5.48,0-6.86-.64-6.86-3.17,0-6.27,5.53-58.63,6.28-59.37.41-.42,10.85.67,23.2,2.42s23.6,2.73,25,2.18c1.61-.61,4-7.14,6.28-17.21,2-8.92,5.81-25.07,8.39-35.89,4-17,4.34-19.9,2.13-21.3-3.84-2.43-21-7.26-26.73-7.53-5.53-.25-4.92-1.36-11.61,21.19-3.71,12.52-3.85,12.7-9.23,12.18s-5.45-.69-5.19-9.23S50,405.09,56.33,390.2l3.29-7.66,21.95,7.78c12.07,4.28,22.88,7.79,24,7.79s4-4.84,6.25-10.76,9.14-20.83,15.22-33.15,11-23.14,11-24c0-1.92-26.58-15.6-30.3-15.6-1.41,0-6.17,6.91-10.78,15.66-8.21,15.56-10.19,17.26-17.08,14.61a4.3,4.3,0,0,1-2.75-3.52c0-5.72,24.8-50.72,28.79-52.25,1.32-.51,11.48,4.74,22.58,11.67s20.79,11.91,21.55,11,5.39-7.43,10.3-14.61,14.8-20.49,22-29.59,13-16.92,13-17.4c-.1-1.13-23.86-21.59-25.88-22.29-.86-.3-4.16,2.4-7.34,6-21.38,24.12-21.25,24-26.64,18.07-3-3.29-3-3.63,0-8.26,4.12-6.42,25.24-31.34,32.06-37.83l5.41-5.15,17.83,17.77,17.83,17.77,19.17-17.84c10.54-9.81,23.7-21.76,29.25-26.54l10.09-8.71-10-12.61c-6-7.64-11.27-12.62-13.25-12.62-1.8,0-9.38,5.06-16.86,11.24l-13.58,11.24-3.76-5.08c-2.06-2.79-3.75-5.79-3.75-6.65,0-1.46,28.23-24.12,41.44-33.26l5.77-4,4.13,3.88c2.28,2.14,9,10.84,15,19.34s11.6,15.46,12.46,15.46c1.32,0,61.58-35.54,63.71-37.57,1.09-1-8.22-21.93-11.92-26.76l-3.29-4.3-16.24,7.35c-8.94,4-17.2,7.35-18.36,7.34-2.58,0-6.25-6.44-4.91-8.6,1.64-2.66,50.55-29.7,53.71-29.7.36,0,4.84,9.88,9.95,21.94s10.18,22.28,11.25,22.69,9.06-2,17.74-5.27S408,109.5,415,107.41c23-6.83,25.87-8.4,25.87-14,0-4.34-7.09-26.71-9.1-28.72-.41-.41-7.29,1.21-15.28,3.6-16.89,5.05-21.83,5.39-23.29,1.59-2-5.23-1-7.61,4.19-10.31,5-2.61,52.18-15.37,53.15-14.39.26.26,2.89,11,5.83,23.81s5.75,23.73,6.23,24.21c.94.94,68.91-7.88,73.09-9.48a7.34,7.34,0,0,0,3.54-4.23c1-3-1.89-29.31-3.35-30.77-.35-.36-9,0-19.17.81C498.53,51,498.2,51,497.26,47.19a19.72,19.72,0,0,1-.36-7c.68-3.54,6.55-4.41,43.65-6.43L561,32.62V84.33l23.92,1.1c13.17.61,30.26,1.61,38,2.23L637,88.78l2-12.31a152,152,0,0,0,2-17.49c0-5.75-.77-6.07-20-8.23-16-1.81-18.28-3.06-18.28-10.24,0-5.2.6-6.13,3.92-6.13,5.9,0,57.08,8.21,58.2,9.32.53.53-1.12,11.2-3.68,23.71S657,90.83,657.49,91.66s6.62,2.86,13.57,4.52,22.41,5.66,34.37,8.89S728.48,111,730.1,111c2.07,0,4.55-4.19,8.39-14.14,3-7.77,5.1-15,4.66-16.18s-8.32-4.64-17.53-7.82-17-6.27-17.43-6.88-.26-3.36.27-6.1c.91-4.76,1.27-4.93,8.41-3.95,7.81,1.07,50.67,16.22,52,18.38.42.69-3.11,10.88-7.84,22.66s-8.61,22.09-8.61,22.93,10.8,6.93,24,13.54,28.11,14.44,33.14,17.41,9.71,5.39,10.39,5.39c2.12,0,18-29.47,16.9-31.3-.59-1-7.88-5.74-16.21-10.64s-15.29-9-15.5-9.23,1.19-2.89,3.1-6l3.47-5.7,15.17,8.18c17.15,9.25,38.67,22.81,38.67,24.37,0,.57-5.87,9.68-13,20.26s-13,19.86-13,20.65,13.4,12.12,29.78,25.18L899,215.68l11.55-12.6c6.36-6.93,11.77-13.11,12-13.74s-6.24-6.86-14.44-13.84-14.65-13.2-14.33-13.82l3-5.91c1.32-2.64,3-4.79,3.68-4.79,1.39,0,42.89,36.08,46.5,40.43,1.91,2.3-.44,5.18-16.3,20l-18.54,17.31,8.07,9.08c4.44,5,15.58,18.44,24.76,29.88s17.52,20.8,18.53,20.8c2.59,0,27.38-18.89,27.38-20.86,0-.89-5-8.26-11.11-16.36l-11.11-14.73,5.08-4.87,5.08-4.87,4.25,5.17c2.34,2.85,10.94,14.48,19.12,25.85L1017,278.47l-20.48,12.79c-11.27,7-21.16,13-22,13.34s1.83,6,5.91,12.65,12.6,22,18.92,34c8.35,15.9,12.21,21.66,14.1,21,1.44-.48,9.1-3.85,17-7.49l14.4-6.61L1037,342.51c-4.33-8.63-7.87-16.85-7.87-18.27,0-2.56,5-6.19,8.56-6.19,2.16,0,26.24,48,26.24,52.31s-2.61,5.95-23.33,14.51c-10.31,4.26-19.15,8.15-19.65,8.65-.92.92,17.76,68.71,19.38,70.32,1.21,1.22,21.52-2.91,28.39-5.77s6.93-4.21,1.59-24.76l-4.07-15.65,6.2-1.9c3.41-1.05,6.71-1.33,7.34-.64,1.53,1.69,13.74,52.48,13.74,57.15,0,3.34-1.76,3.94-19.58,6.64-31.23,4.73-28.07,2.13-26.78,22.13.61,9.43,1.59,25.18,2.18,35,1.51,25.22,1.91,25.67,22.66,25.67h16.68l-1.25-20.88-1.26-20.89h14l1.08,10.88c.59,6,1.24,19.32,1.44,29.64.3,15-.15,19.11-2.24,20.56-1.67,1.16-11.1,1.45-26.27.81l-23.67-1-1.06,19.59c-.58,10.78-2.29,27.76-3.79,37.73s-2.07,18.81-1.26,19.62c2,2,29.62,7.12,32.45,6,1.32-.5,3.12-6.84,4.38-15.36,3.11-21.21,2.79-20.6,10.64-20.6,6,0,6.84.48,6.84,4.16,0,4.57-4,26.65-8.09,45-3.14,14-2.3,13.79-29.24,7.3-19-4.58-25.32-4.43-25.32.6,0,1.59-4.31,16.34-9.57,32.79s-9.58,31-9.58,32.43c0,2.54,29.32,17.2,31.66,15.83.67-.39,3.77-8.52,6.9-18.07,5.93-18.1,7.45-19.64,16.12-16.31,4,1.54,3.45,5.52-3.2,22.94-7.64,20-14.41,33.35-17.57,34.56-1.38.53-10.15-2.55-19.51-6.84s-18.35-8.24-20-8.8c-4-1.32-7,1.92-14.68,15.91-3.53,6.41-11,19.45-16.57,29S970,836.84,970,838.32c0,3.17,22.49,17.54,27.22,17.41,2.1-.05,6.45-5.18,12.52-14.79,5.12-8.09,10.23-14.71,11.36-14.71,2.94,0,9.8,5.08,9.8,7.26,0,2.41-27.07,43.71-31,47.23-2.76,2.5-4.56,1.62-22.73-11.09C966.35,862,957,855.86,956.33,855.9s-4.53,4.31-8.66,9.47S932.39,883,922.87,893.1,905.58,912,905.58,912.74s5.64,7,12.54,13.92l12.53,12.62,13.37-13c7.36-7.15,14.52-13,15.91-13s4,1.61,5.77,3.56c3.19,3.53,3,3.82-19.32,26.11l-22.54,22.54-16.19-18.27c-8.9-10.05-16.94-18.28-17.85-18.28s-8.51,5.3-16.87,11.78c-12,9.29-27.4,20.72-42,31.15-1,.72,10.53,19.44,14.95,24.26,2.11,2.29,5.26,4.17,7,4.17s8.62-3.92,15.26-8.7c13.44-9.67,16.25-10.35,21-5.09,3.22,3.55,3.2,3.67-1,7-2.36,1.86-13.62,9.64-25,17.3-24.2,16.28-22,16.65-35.94-6.08-10.11-16.47-12.81-20.1-14.9-20.05-.85,0-16,7.3-33.74,16.16-24.2,12.12-32.33,17-32.71,19.62s8.62,27.4,10.95,30c.25.29,8.39-3,18.08-7.4s18-7.91,18.44-7.91,2.06,2.4,3.58,5.34c2.1,4.07,2.28,5.92.77,7.74-2.31,2.79-49.43,21.72-54,21.72-3.23,0-5.73-5.53-13.78-30.45-2.16-6.7-4.51-12.82-5.21-13.59s-12.56,1.67-26.33,5.44-29.35,7.76-34.61,8.86c-15.14,3.15-14.94,2.81-11.59,19.49,1.59,7.94,3.65,15.19,4.57,16.12,1.08,1.07,8,.84,19.29-.66,18.73-2.48,20.7-1.95,20.76,5.61,0,4.49-4.05,6-30.53,10.87-13.34,2.48-25.85,4.85-27.8,5.27-3.27.71-3.75-.74-6.43-19.2-1.6-11-4-22.11-5.23-24.74-2.69-5.53-4.24-5.63-35.14-2.41-10.45,1.1-26.62,2-35.92,2-19.48,0-17.91-1.65-19.95,21.06-1.42,15.9-2.12,15.37,22.24,16.76l17,1v13.42l-13.49-.24c-7.42-.13-20.93-1-30-1.87Zm68-74.59c146.27-11.62,275-87.13,354.23-207.85a476.17,476.17,0,0,0,71.27-184.47c3.81-24.32,5.24-85,2.68-114C1010.19,325,862.42,157.2,668.08,113.61c-38-8.52-54.62-10.23-99.25-10.22-34.4,0-46.19.68-66.82,3.86-135.21,20.81-247.93,91.87-321.69,202.8-14.71,22.12-39.13,70.43-48.34,95.65-22.25,60.89-30.9,121.37-27,189,3.68,64.59,17.54,116.64,47,176.69,54.44,110.84,153.51,197,269,234,62.95,20.16,119.16,27.27,178.39,22.56Z"/><path id="path822" class="cls-3" d="M490.51,1125.53c-129.74-20-239.2-75.38-327.3-165.59-66.62-68.21-113.86-149.87-140-242C9.8,670.69,4.85,638.64,3.1,587.81c-2.94-85.57,9.9-159.08,41-234.76A566.88,566.88,0,0,1,199.88,137.24c77.45-66.43,174.49-111.68,276.71-129C522,.52,611.32.51,656.29,8.21A583.47,583.47,0,0,1,922.12,127.69c22,17.65,59,53.93,76.93,75.5,72.12,86.66,120,200.05,129.42,306.27,2.77,31.3,1.17,112.61-2.7,137.52-33,212.26-176.61,384-379.33,453.57-41.27,14.17-84.66,23.67-121.91,26.7-36.84,3-109.51,2.06-134-1.72Zm96.59-26.68v-18l-10.7-1.12c-5.88-.61-14.89-1.11-20-1.11-9,0-9.32-.16-9.29-4.79,0-2.63.6-5.67,1.3-6.75s13-2.78,30.87-4c16.27-1.13,31.28-2.47,33.35-3,3.35-.82,4,.09,5.55,8.37,1,5.11,3,15.63,4.5,23.38s2.72,14.61,2.72,15.23c0,4,50.39-3.8,72.72-11.22l10.95-3.64-.8-9.84c-.86-10.49-5.22-22.9-8.06-22.9-.94,0-8.88,1.24-17.63,2.75-17.37,3-19.39,2.34-18.48-6,.42-3.76,2.6-4.65,26.17-10.71l25.71-6.6,2.33,4.62a132.28,132.28,0,0,1,5.44,14.19,121.1,121.1,0,0,0,6.33,15.64c1.77,3.33,3.22,7.05,3.22,8.27a2.15,2.15,0,0,0,2.08,2.2c7.56,0,60.93-19.94,67.53-25.23a23.89,23.89,0,0,1,5.7-3.19,7.57,7.57,0,0,0,4.08-3.7c.94-2.43-10.44-27.92-13.22-29.64-1.45-.9-21.07,6-29.51,10.36-6.21,3.21-8,2.42-9.64-4.29-1-4.12.28-5,24.05-16.87l25.11-12.51,11.52,18c6.34,9.88,12.75,19,14.26,20.24,2.3,1.91,4.41,1.36,13.47-3.56,11.48-6.23,43.59-28.12,52.95-36.11l5.67-4.83-4.81-7a137.53,137.53,0,0,0-11.29-13.79c-6-6.28-6.72-6.62-9.55-4.14-1.7,1.47-8.5,6.43-15.12,11l-12,8.34-4-5.06c-2.23-2.79-3.86-5.57-3.63-6.19.52-1.36,40.54-31.07,41.86-31.07.51,0,8.17,8.22,17,18.27s17.08,18.28,18.26,18.28c2.7,0,59.89-59.06,59.89-61.84,0-2.41-13.1-14.27-20.66-18.7l-5.28-3.1-13.44,12.26L931.07,922l-4.85-4.65-4.85-4.64,8.57-9.74c4.72-5.36,13.11-14.67,18.65-20.68l10.07-10.95,10.44,7.09c5.75,3.9,15.06,9.93,20.69,13.39l10.24,6.3,6-6.8c15.5-17.55,43.14-63.35,39-64.72a61.4,61.4,0,0,1-8.48-5.13c-5.68-3.88-21.33-10-22.27-8.74-.18.24-4.47,6.71-9.55,14.37s-9.46,14.21-9.76,14.57-2.91-.85-5.81-2.69l-5.28-3.34,13.91-24.59,13.92-24.58,14.35,6c7.89,3.32,18.07,7.7,22.61,9.73s8.56,3.36,8.93,3c1.83-2,15.63-30.94,20-42.05,4.94-12.43,11.55-35.93,10.36-36.8-3.08-2.27-19.54-7.78-25.4-8.51-7.29-.91-7.44-.83-10.62,6.36-1.77,4-4.57,11.37-6.23,16.37-3.19,9.59-6,11.12-12,6.55-3-2.31-2.88-3.44,4.1-26.48,4-13.24,7.94-24.77,8.74-25.62s9.1.05,19.71,2.29c10,2.12,20.85,3.6,24,3.29,5-.48,6.08-1.46,8.06-7.51,5.86-17.87,12.55-57.28,11.3-66.58-.89-6.66-1.57-7.51-7.28-9.1-8.93-2.48-23.78-2.21-26,.47-1,1.23-3.2,9.06-4.84,17.4-2.89,14.72-3.12,15.17-7.83,15.17-2.66,0-5.36-.83-6-1.85-1-1.63,1.46-34.13,3.81-50.19l.87-5.92,24.21,1.1,24.21,1.1,1.33-4.75c1.75-6.26,1.65-55.48-.15-70.45l-1.41-11.75h-36.79l1.18,20.89,1.18,20.88h-13.68l-1-10c-.55-5.5-1.49-18.25-2.09-28.34l-1.09-18.33,14.68-2.13a209.06,209.06,0,0,0,23.91-4.86l9.23-2.74-1.08-10.27c-2.37-22.71-14.88-67-19.77-70.07-1.77-1.09-21.2,2.65-28.61,5.52l-4.61,1.78,4.88,18.82,4.89,18.82-3.67,1.38c-9.52,3.57-11.87-1-22.67-44.22-1.07-4.3-.42-4.86,11.46-9.88,6.93-2.93,17-7.3,22.44-9.71l9.86-4.39-3.35-11c-4.41-14.43-28.78-63.92-32.1-65.19-1.43-.55-5.13,0-8.22,1.23-6.66,2.63-22.18,12.24-22.11,13.69,0,.56,3.45,8.06,7.62,16.68l7.57,15.66-5.44,2.88c-3,1.58-6,2.56-6.59,2.17-1.5-.92-25.83-45.42-25.82-47.2,0-.75,9.4-7.15,20.88-14.23s20.88-13.54,20.88-14.37c0-2.88-47.9-67.55-51.84-70-1.81-1.11-26.5,21.18-26.41,23.85,0,1.11,4.72,8.29,10.39,16L975.08,265,971,269.1c-2.26,2.27-5,3.6-6,2.94-2.73-1.69-35-40.62-35-42.22,0-.74,7.85-9.22,17.45-18.85l17.45-17.51-9.49-9.72c-10.08-10.32-39.87-36.17-49.36-42.83-5.52-3.88-5.8-3.9-10.09-.87-2.43,1.71-7.59,7.78-11.46,13.49l-7.05,10.39,5,4.2c10.06,8.53,23.23,21.38,23.23,22.68,0,.74-1.8,3-4,5.1l-4,3.75-21.15-16.94c-11.63-9.31-21.19-17.53-21.24-18.26s5.92-10.33,13.25-21.35c15.36-23,16.19-19.08-7.25-34.61-12.61-8.36-51.62-30.6-53.67-30.6-1.65,0-12.95,21.84-14.11,27.27s-.87,5.71,13.72,14.63c8.2,5,14.91,9.34,14.91,9.62,0,2.71-4.56,9.39-6.4,9.39-2.37,0-43.26-19.92-46.88-22.84-1.38-1.11.2-7.22,5.45-21.12,11.09-29.31,11.13-26.21-.43-31.39-17-7.62-38.95-15.23-54.06-18.75-7.93-1.85-14.76-3.36-15.18-3.36-1.63,0-6.07,10.5-7.82,18.53-1,4.64-2.25,9.75-2.74,11.35-.59,2,.43,3.28,3.11,4.06,2.2.64,10.39,3.52,18.2,6.41l14.21,5.24-1.76,5c-1,2.78-3,5-4.41,5-4.05,0-49.9-12.32-51.5-13.84-.77-.73-.23-7.9,1.2-15.94s3.11-18.6,3.72-23.5l1.1-8.89L670.33,33c-26.22-6.55-74.08-11.81-77.38-8.51-.51.5-1.19,8.42-1.52,17.6l-.61,16.67,4.67,0c6,0,31.57,4.53,32.78,5.75.51.51.39,3.39-.27,6.4l-1.2,5.47-17.68-1.05c-9.72-.58-21.78-1.48-26.81-2l-9.13-.94V20.1L551,21.3c-19.71,1.05-40.14,3-60,5.61-6.34.85-6.53,1.08-6.53,8a107.5,107.5,0,0,0,2.14,17.46L488.7,62.7l18.55-1,18.56-1,1.08,5.42c.6,3,.49,6-.24,6.69-1.8,1.73-53.24,8.26-54.68,7-.63-.58-3.66-11.37-6.73-24l-5.59-22.95-8.94,1c-11,1.2-42.88,9.53-60,15.68l-12.79,4.6,1.1,7.1c1.37,8.82,9.5,25.38,12.46,25.38,1.21,0,9.26-1.89,17.89-4.2L425,78.19l1.15,5.24c.63,2.88.49,5.9-.33,6.7s-12.7,5.38-26.42,10.17L374.5,109l-4.33-9.9c-2.38-5.45-7.07-15.5-10.42-22.35l-6.1-12.44-6.4,1.77c-11.07,3-65.83,32.37-68.49,36.67-1.24,2,3,11.23,10.47,23,2.46,3.85,4.55,7.16,4.63,7.36s7.9-3.52,17.38-8.27,17.71-8,18.3-7.33a35.07,35.07,0,0,1,3,5.83c1.88,4.44,1.53,4.74-20.12,17.4-12.11,7.09-22.95,12.89-24.08,12.89s-8.39-8.42-16.13-18.71-14.95-18.71-16-18.71c-4.86,0-54.08,38.26-61.16,47.54l-4.48,5.87,9.66,12.89c5.32,7.09,10.33,13.14,11.14,13.45s7.19-4.25,14.15-10.14c16.89-14.28,17.15-14.38,21.65-8.82l3.76,4.65L230,200.49l-20.87,18.88L192.3,202.58c-9.27-9.24-18.17-16.79-19.78-16.79-3.72,0-35.22,35-46.84,52.08l-8.81,12.92,7.21,6.66a77.33,77.33,0,0,0,14,10.15l6.82,3.48,5.71-6.47c3.14-3.56,8.84-9.81,12.67-13.89l7-7.42,4.68,4.13,4.68,4.14-14.25,19C157.56,281,150,291.28,148.53,293.46l-2.61,4-20.43-12.3c-11.24-6.77-21.14-12.31-22-12.31-3.91,0-31.82,48-37.85,65.07-2.35,6.65-2.27,7.08,2.2,11.74,3.71,3.87,24.76,13.22,25.9,11.5.16-.23,4-7.47,8.66-16.08s8.57-15.92,8.82-16.23c.81-1,11.22,5,11.22,6.44,0,.79-5.09,12.1-11.32,25.14L99.79,384.09,77,376.15c-13-4.53-23.47-7.28-24.34-6.41-5.08,5.08-24.19,67.75-24.19,79.33,0,2.86,31,11.1,33,8.78.7-.79,3.45-8.49,6.12-17.1s5.07-15.94,5.35-16.27c1.44-1.71,11.19,2.1,11.19,4.38,0,3.91-10.76,50-12,51.35-.58.65-10.39,0-21.8-1.39s-22.31-2.33-24.23-2c-2.71.4-4,2.78-5.78,10.6-3.08,13.62-7.23,57.8-6.27,66.7.78,7.13.83,7.18,9.13,8.16a98.67,98.67,0,0,0,18.11,0l9.77-1,.15-9.76c.08-5.37.67-13.68,1.3-18.46,1.14-8.57,1.25-8.71,7.25-8.71h6.09l-.48,20c-.26,11-.88,24-1.38,28.8l-.92,8.8-23.42,1.81c-12.89,1-24,2.35-24.63,3-1.61,1.61,2.49,49.19,5.64,65.48,2.84,14.68,5.2,17.4,15,17.4,6.69,0,20.59-4.57,22.5-7.39.58-.85.44-5.21-.3-9.69s-1.68-12.26-2.09-17.29l-.75-9.14h6.7c3.69,0,6.72.59,6.73,1.31s2,11.88,4.33,24.8,4.32,24.41,4.33,25.52-10,4.37-23.91,7.61c-13.16,3.07-24.16,5.79-24.45,6-2.79,2.41,18.75,69,26.59,82.17.47.79,14.23-3.33,23.1-6.91,5.53-2.23,9.14-4.76,9.16-6.41s-2.09-9.64-4.67-18.09c-4-13-4.31-15.61-2.2-17,6.73-4.36,9.19-1.33,19.18,23.64,5.36,13.4,9.42,25,9,25.7s-4.77,3.36-9.73,5.83c-21.34,10.63-30.77,17-30.77,20.76,0,7.9,25.84,54,35.43,63.25l6.13,5.89,7.5-3.68a74.32,74.32,0,0,0,13.38-8.82l5.88-5.13-8.92-16.69L119,819.21l5.55-3.37,5.54-3.37,5.44,8.19c16.58,25,25.68,40.78,24.12,41.83-13.83,9.3-35.44,27.82-35.44,30.37,0,5.28,50.07,63.9,54.57,63.9,1.14,0,7.91-5.87,15-13l13-13.06L193,916.82,179.25,903l4.22-3.51c2.32-1.93,4.63-3.54,5.12-3.57s9.44,8.51,19.88,19l19,19-8.56,9.91C214.17,949.3,207,958,202.83,963.18l-7.49,9.42,9.08,8.18c12.82,11.55,26.08,21.75,44.09,33.9l15.57,10.5,5.91-6.8c6.5-7.47,12.55-18.24,12.55-22.33,0-1.44-1.37-3.35-3-4.25s-7.88-5.49-13.79-10.21L255,973l4-5,4-5,22.78,14.69c25.71,16.57,24.74,14.35,14.24,32.64a191.33,191.33,0,0,0-9.69,19.25c-3,7.6-3,7.62,1.17,10.9,3.72,2.92,69.68,36.3,71.72,36.3.9,0,6.64-14,10.61-25.92,2.44-7.31,2.39-7.78-1.24-10.82-2.09-1.74-9.26-5.48-15.94-8.31s-12.43-6-12.79-7.1.25-4.17,1.37-6.86l2-4.88,26.7,11.31,26.7,11.31-2.69,8.89c-3.88,12.82-10.72,38.38-10.35,38.64,8.84,6.23,80.86,23.29,83.09,19.68,1.31-2.11,4.37-16.94,5.75-27.77l.78-6.19-19.05-4.13c-14.56-3.16-18.82-4.71-18.1-6.57a16.27,16.27,0,0,0,1-4.48c.09-6.66,2.37-6.67,32.31-.23,16.18,3.48,29.83,7,30.34,7.81s-.19,11.79-1.55,24.4c-1.93,18-2,23.19-.33,24.22,1.18.73,11.27,2.23,22.44,3.35,27.47,2.74,32,3,48.59,3.39l14.36.29Z"/><path class="cls-3" d="M251.91,607.85c0-165.29,67.25-291.68,189.59-291.68,124.78,0,182.3,117.48,182.3,291.68,0,182.3-59.14,301.4-184.73,301.4C323.21,909.25,251.91,808,251.91,607.85Zm301.4-30.79C552.5,462,516,368.83,437.45,368.83c-72.11,0-115,98-115,208.23ZM322.4,630.53c0,144.22,48.61,226.05,118.29,226.05,76.16,0,112.62-94,112.62-226.05Z"/><path class="cls-3" d="M663.49,511.43l51-47c67.25-61.58,102.09-99.66,102.09-141,0-30.79-19.45-55.91-61.58-55.91-28.36,0-52.67,13.78-68.06,25.12L670,255.4c21.87-17.83,58.33-34,98.84-34,76.16,0,107.76,48.61,107.76,91.55,0,61.58-46.18,106.14-107.76,159.62l-25.11,22.68v1.62H882.26v44.57H663.49Z"/><g id="layer2"><path id="path2875" class="cls-4" d="M565.68,1132.78c284.79,0,567.06-223.53,567.06-564.73,0-289.83-225.86-568-567.06-568C226.31,0,1,283.26,1,568.05,1,850.09,227.24,1132.78,565.68,1132.78Z"/></g></g></g></svg>